<svg width="233" height="233" fill="none" xmlns="http://www.w3.org/2000/svg"><path fill-rule="evenodd" clip-rule="evenodd" d="M125.766 116.646c56.221-8.096 97.694-58.181 94.08-115.861-57.413 3.597-101.784 50.576-103.195 107.017C108.555 51.581 58.469 10.108.789 13.722c3.597 57.413 50.575 101.784 107.017 103.196-56.221 8.095-97.694 58.181-94.08 115.862 57.412-3.598 101.784-50.576 103.196-107.018 8.096 56.221 58.181 97.694 115.861 94.08-3.597-57.412-50.576-101.784-107.017-103.196zm-8.982.134l-.001.005h.006v-.006l-.005.001z" fill="#72C4FF"/></svg>