<svg width="567" height="328" fill="none" xmlns="http://www.w3.org/2000/svg"><path fill-rule="evenodd" clip-rule="evenodd" d="M292.75 30.328c44.887-97.699 7.868-215.088-87.545-268.6-53.264 94.971-24.161 213.777 64.12 274.006C171.626-9.154 54.237 27.866.725 123.28c94.97 53.264 213.776 24.161 274.005-64.12-44.887 97.698-7.867 215.088 87.547 268.6 53.263-94.97 24.161-213.777-64.121-274.006 97.699 44.887 215.088 7.867 268.6-87.546-94.97-53.263-213.776-24.16-274.006 64.12zm-9.016 14.417l.007.006.007-.009a.058.058 0 00-.01-.005l-.004.008z" fill="#194A64" fill-opacity=".29"/></svg>