<svg width="343" height="298" fill="none" xmlns="http://www.w3.org/2000/svg"><path opacity=".5" fill-rule="evenodd" clip-rule="evenodd" d="M86.164 72.804L.228 97.523l24.719 85.936c12.588 43.762 55.69 70.475 99.538 63.671-41.514 17.155-64.39 63.143-51.681 107.328l24.719 85.936 85.936-24.719c43.762-12.588 70.475-55.69 63.671-99.538 17.156 41.514 63.143 64.39 107.328 51.681l85.936-24.719-24.719-85.937c-12.588-43.762-55.691-70.475-99.538-63.671 41.514-17.154 64.39-63.142 51.681-107.327L343.099.228l-85.937 24.719c-43.762 12.588-70.475 55.69-63.671 99.538-17.154-41.514-63.142-64.39-107.327-51.681z" fill="#26728E"/></svg>