<svg width="231" height="231" fill="none" xmlns="http://www.w3.org/2000/svg"><path fill-rule="evenodd" clip-rule="evenodd" d="M45.584 38.595L.642 51.522l12.927 44.942c6.583 22.886 29.124 36.856 52.055 33.298-21.71 8.972-33.674 33.022-27.027 56.129l12.927 44.942 44.942-12.927c22.886-6.583 36.856-29.125 33.298-52.056 8.972 21.711 33.021 33.674 56.129 27.028l44.942-12.928-12.928-44.941c-6.583-22.887-29.124-36.857-52.055-33.298 21.711-8.972 33.674-33.022 27.027-56.129L179.952.64 135.01 13.568c-22.886 6.583-36.856 29.123-33.297 52.055-8.972-21.71-33.022-33.674-56.13-27.028z" fill="#BCE3FF"/></svg>