<svg width="151" height="115" fill="none" xmlns="http://www.w3.org/2000/svg"><path opacity=".3" fill-rule="evenodd" clip-rule="evenodd" d="M36.356 30.783L.512 41.093l10.31 35.843c5.25 18.253 23.228 29.395 41.517 26.557-17.315 7.156-26.857 26.337-21.556 44.766l10.31 35.843 35.844-10.31c18.253-5.25 29.394-23.228 26.557-41.517 7.155 17.316 26.336 26.857 44.765 21.556l35.844-10.31-10.31-35.843c-5.251-18.253-23.229-29.395-41.517-26.557 17.315-7.155 26.856-26.337 21.555-44.766L143.521.512l-35.843 10.31c-18.253 5.25-29.395 23.228-26.557 41.517-7.155-17.315-26.336-26.857-44.765-21.556z" fill="#A9D3DC"/></svg>