<svg width="104" height="91" fill="none" xmlns="http://www.w3.org/2000/svg"><g clip-path="url(#clip0_126_6982)"><path d="M104 37.545V86.74c0 1.868-1.518 3.392-3.378 3.392H3.378A3.381 3.381 0 010 86.741V37.545c0-1.197.62-2.262 1.567-2.852a3.273 3.273 0 011.811-.54h97.244c.669 0 1.289.196 1.811.54A3.376 3.376 0 01104 37.545z" fill="#84DBEF"/><path d="M1.563 34.693L49.605 1a3.368 3.368 0 014.782 0l48.059 33.71a3.277 3.277 0 01-1.812.54H3.374c-.67 0-1.29-.212-1.812-.557z" fill="#00A7CD"/><path d="M102.446 34.71L83.173 48.23 54.387 68.42a3.368 3.368 0 01-4.782 0l-28.77-20.19L1.562 34.693l100.884.017z" fill="#00A7CD"/><path d="M83.158 16.716v31.53L54.388 68.42a3.368 3.368 0 01-4.782 0l-28.77-20.19V16.716c0-1.868 1.518-3.392 3.378-3.392H79.78a3.371 3.371 0 013.378 3.392z" fill="#F7F7F7"/><path d="M1.563 89.593l48.042-33.71a3.368 3.368 0 014.782 0l48.059 33.71a3.277 3.277 0 01-1.812.54H3.374c-.67 0-1.29-.196-1.812-.54z" fill="#00A7CD"/></g><path d="M57.848 44.841c-.592.459-1.423.831-2.493 1.118-1.05.286-2.15.43-3.296.43-1.566 0-3.028-.24-4.384-.717-1.338-.477-2.494-1.184-3.468-2.12-.955-.917-1.71-2.064-2.264-3.44-.535-1.394-.802-2.99-.802-4.785 0-1.681.277-3.22.83-4.614.555-1.395 1.329-2.58 2.322-3.554 1.013-.993 2.226-1.757 3.64-2.292 1.413-.554 2.97-.831 4.67-.831 1.453 0 2.819.238 4.099.716 1.299.459 2.417 1.118 3.353 1.978.936.84 1.672 1.872 2.206 3.095.554 1.222.831 2.579.831 4.069 0 2.216-.468 3.926-1.404 5.13-.917 1.203-2.034 1.805-3.353 1.805-.745 0-1.413-.172-2.006-.516a2.62 2.62 0 01-1.175-1.49c-.267.611-.745 1.099-1.433 1.462a4.716 4.716 0 01-2.235.544c-1.452 0-2.617-.506-3.496-1.519-.879-1.031-1.318-2.378-1.318-4.04 0-.899.133-1.7.4-2.408.268-.707.622-1.29 1.061-1.748.459-.477.994-.84 1.605-1.089a5.054 5.054 0 011.92-.372c.65 0 1.232.124 1.748.372a4.77 4.77 0 011.318.917v-1.089h2.035v7.337c0 .61.163 1.07.487 1.375.325.287.726.43 1.204.43.764 0 1.395-.459 1.891-1.376.497-.917.745-2.149.745-3.696 0-1.223-.229-2.331-.687-3.325a7.337 7.337 0 00-1.806-2.522c-.764-.687-1.672-1.213-2.722-1.576a9.82 9.82 0 00-3.382-.573c-1.375 0-2.636.239-3.783.716a8.812 8.812 0 00-2.952 1.978 9.228 9.228 0 00-1.89 2.98c-.44 1.147-.66 2.388-.66 3.726 0 1.47.22 2.78.66 3.926.458 1.146 1.088 2.102 1.89 2.866a7.806 7.806 0 002.838 1.72c1.108.4 2.302.601 3.582.601a9.22 9.22 0 002.694-.401c.878-.249 1.585-.526 2.12-.831l.86 1.633zm-3.124-9.457v-.43c0-1.203-.286-2.073-.86-2.608a2.883 2.883 0 00-2.034-.802c-.879 0-1.595.334-2.15 1.003-.553.65-.83 1.547-.83 2.694 0 1.184.267 2.101.802 2.751.554.65 1.28.974 2.178.974.822 0 1.51-.296 2.063-.888.554-.592.831-1.49.831-2.694z" fill="#00A7CD"/><defs><clipPath id="clip0_126_6982"><path fill="#fff" d="M0 0h104v90.133H0z"/></clipPath></defs></svg>