<svg width="233" height="177" viewBox="0 0 233 177" fill="none" xmlns="http://www.w3.org/2000/svg">
<path fill-rule="evenodd" clip-rule="evenodd" d="M125.766 60.6465C181.987 52.5503 223.46 2.46495 219.846 -55.215C162.433 -51.6178 118.062 -4.6392 116.651 51.8024C108.555 -4.41895 58.4688 -45.8919 0.788507 -42.2779C4.38572 15.1347 51.3643 59.5061 107.806 60.9176C51.5849 69.0135 10.1119 119.099 13.7259 176.78C71.1381 173.182 115.51 126.204 116.922 69.7621C125.018 125.983 175.103 167.456 232.783 163.842C229.186 106.43 182.207 62.0583 125.766 60.6465ZM116.784 60.7795C116.784 60.7813 116.783 60.7834 116.783 60.7845L116.789 60.7853C116.789 60.7831 116.789 60.7811 116.789 60.7792C116.787 60.7793 116.785 60.7795 116.784 60.7795Z" fill="#72C4FF"/>
</svg>
