<svg width="231" height="231" viewBox="0 0 231 231" fill="none" xmlns="http://www.w3.org/2000/svg">
<path fill-rule="evenodd" clip-rule="evenodd" d="M45.5839 38.5952L0.642031 51.5224L13.5692 96.4642C20.1523 119.35 42.693 133.32 65.6244 129.762C43.9142 138.734 31.9503 162.784 38.597 185.891L51.5242 230.833L96.466 217.906C119.352 211.323 133.322 188.781 129.764 165.85C138.736 187.561 162.785 199.524 185.893 192.878L230.835 179.95L217.907 135.009C211.324 112.122 188.783 98.1523 165.852 101.711C187.563 92.7394 199.526 68.6892 192.879 45.5822L179.952 0.64029L135.01 13.5675C112.124 20.1505 98.1539 42.6913 101.713 65.6226C92.7413 43.9124 68.691 31.9486 45.5839 38.5952Z" fill="#BCE3FF"/>
</svg>
