<svg width="186" height="123" viewBox="0 0 186 123" fill="none" xmlns="http://www.w3.org/2000/svg">
<path fill-rule="evenodd" clip-rule="evenodd" d="M100.302 30.0317C145.142 23.5745 178.218 -16.3711 175.336 -62.3739C129.547 -59.505 94.158 -22.0371 93.0323 22.9781C86.5754 -21.8614 46.6293 -54.9383 0.626203 -52.0559C3.49517 -6.26637 40.9631 29.1222 85.9783 30.2479C41.139 36.7048 8.06212 76.6509 10.9445 122.654C56.7337 119.785 92.1225 82.3171 93.2485 37.3018C99.7055 82.1412 139.651 115.218 185.654 112.336C182.785 66.5465 145.317 31.1577 100.302 30.0317ZM93.1384 30.1378C93.1385 30.1392 93.1377 30.1409 93.1378 30.1418L93.1426 30.1424C93.1425 30.1406 93.1424 30.1391 93.1423 30.1376C93.1409 30.1377 93.1393 30.1378 93.1384 30.1378Z" fill="#AAD3DC"/>
</svg>
