<svg width="343" height="298" viewBox="0 0 343 298" fill="none" xmlns="http://www.w3.org/2000/svg">
<path opacity="0.5" fill-rule="evenodd" clip-rule="evenodd" d="M86.1641 72.8038L0.22767 97.5227L24.9466 183.459C37.5345 227.221 80.6361 253.934 124.485 247.13C82.9713 264.285 60.0944 310.273 72.8039 354.458L97.5228 440.394L183.459 415.675C227.221 403.087 253.934 359.985 247.13 316.137C264.286 357.651 310.273 380.527 354.458 367.818L440.394 343.099L415.675 257.162C403.087 213.4 359.984 186.687 316.137 193.491C357.651 176.337 380.527 130.349 367.818 86.1641L343.099 0.227703L257.162 24.9466C213.4 37.5345 186.687 80.6363 193.491 124.485C176.337 82.9711 130.349 60.0944 86.1641 72.8038Z" fill="#26728E"/>
</svg>
