<svg width="233" height="233" viewBox="0 0 233 233" fill="none" xmlns="http://www.w3.org/2000/svg">
<path fill-rule="evenodd" clip-rule="evenodd" d="M125.766 116.646C181.987 108.55 223.46 58.465 219.846 0.784979C162.433 4.38219 118.062 51.3608 116.651 107.802C108.555 51.581 58.4688 10.1081 0.788507 13.7221C4.38572 71.1347 51.3643 115.506 107.806 116.918C51.5849 125.013 10.1119 175.099 13.7259 232.78C71.1381 229.182 115.51 182.204 116.922 125.762C125.018 181.983 175.103 223.456 232.783 219.842C229.186 162.43 182.207 118.058 125.766 116.646ZM116.784 116.78C116.784 116.781 116.783 116.783 116.783 116.785L116.789 116.785C116.789 116.783 116.789 116.781 116.789 116.779C116.787 116.779 116.785 116.779 116.784 116.78Z" fill="#72C4FF"/>
</svg>
