<svg width="151" height="115" viewBox="0 0 151 115" fill="none" xmlns="http://www.w3.org/2000/svg">
<path opacity="0.3" fill-rule="evenodd" clip-rule="evenodd" d="M36.3556 30.7828L0.512053 41.0929L10.8222 76.9365C16.0725 95.1894 34.0499 106.331 52.3389 103.493C35.0239 110.649 25.4821 129.83 30.7831 148.259L41.0932 184.102L76.9367 173.792C95.1897 168.542 106.331 150.564 103.494 132.275C110.649 149.591 129.83 159.132 148.259 153.831L184.103 143.521L173.793 107.678C168.542 89.4246 150.564 78.2828 132.276 81.1209C149.591 73.9657 159.132 54.7844 153.831 36.3553L143.521 0.511826L107.678 10.8219C89.4249 16.0723 78.2829 34.0497 81.1211 52.3386C73.966 35.0236 54.7847 25.4818 36.3556 30.7828Z" fill="#A9D3DC"/>
</svg>
