<svg width="440" height="191" viewBox="0 0 440 191" fill="none" xmlns="http://www.w3.org/2000/svg">
<path fill-rule="evenodd" clip-rule="evenodd" d="M237.05 -29.2036C343.47 -44.5287 421.973 -139.334 415.132 -248.514C306.458 -241.705 222.468 -152.781 219.797 -45.9442C204.472 -152.364 109.666 -230.867 0.485078 -224.026C7.29413 -115.351 96.2184 -31.3622 203.055 -28.6904C96.6359 -13.366 18.1331 81.4399 24.9739 190.621C133.648 183.812 217.637 94.8878 220.31 -11.949C235.635 94.4702 330.44 172.973 439.62 166.132C432.811 57.4587 343.887 -26.5312 237.05 -29.2036ZM220.049 -28.9517C220.049 -28.9484 220.047 -28.9443 220.047 -28.9423L220.059 -28.9409C220.058 -28.945 220.058 -28.9488 220.058 -28.9523C220.055 -28.9521 220.051 -28.9519 220.049 -28.9517Z" fill="#430F0F" fill-opacity="0.08"/>
</svg>
