<svg width="567" height="328" viewBox="0 0 567 328" fill="none" xmlns="http://www.w3.org/2000/svg">
<path fill-rule="evenodd" clip-rule="evenodd" d="M292.75 30.3284C337.637 -67.3708 300.618 -184.76 205.205 -238.272C151.941 -143.301 181.044 -24.4952 269.325 35.7339C171.626 -9.1539 54.2366 27.8663 0.724568 123.28C95.6955 176.544 214.501 147.441 274.73 59.1594C229.843 156.858 266.863 274.248 362.277 327.76C415.54 232.79 386.438 113.983 298.156 53.7536C395.855 98.6409 513.244 61.6214 566.756 -33.7919C471.786 -87.0551 352.98 -57.9529 292.75 30.3284ZM283.734 44.7449C283.737 44.7466 283.739 44.7503 283.741 44.7513L283.748 44.7424C283.745 44.7403 283.742 44.7385 283.738 44.7367C283.737 44.7397 283.735 44.7431 283.734 44.7449Z" fill="#194A64" fill-opacity="0.29"/>
</svg>
