<svg width="104" height="91" viewBox="0 0 104 91" fill="none" xmlns="http://www.w3.org/2000/svg">
<g clip-path="url(#clip0_126_6982)">
<path d="M104 37.5446V86.741C104 88.6093 102.482 90.1333 100.622 90.1333H3.378C1.51765 90.1333 0 88.6257 0 86.741V37.5446C0 36.3483 0.620116 35.2831 1.56661 34.6931C2.08881 34.349 2.70893 34.1523 3.378 34.1523H100.622C101.291 34.1523 101.911 34.349 102.433 34.6931C103.38 35.2995 104 36.3483 104 37.5446Z" fill="#84DBEF"/>
<path d="M1.5625 34.6934L49.6052 0.999958C50.927 -0.32746 53.0648 -0.32746 54.3866 0.999958L102.446 34.7098C101.923 35.054 101.303 35.2506 100.634 35.2506H3.37389C2.70482 35.2506 2.0847 35.0376 1.5625 34.6934Z" fill="#00A7CD"/>
<path d="M102.446 34.7097L83.173 48.2297L54.3866 68.4196C53.0648 69.747 50.927 69.747 49.6052 68.4196L20.8351 48.2297L1.5625 34.6934L102.446 34.7097Z" fill="#00A7CD"/>
<path d="M83.1576 16.716V48.2463L54.3875 68.4198C53.0657 69.7472 50.9279 69.7472 49.6061 68.4198L20.8359 48.2299V16.716C20.8359 14.8478 22.3536 13.3237 24.2139 13.3237H79.7796C81.6563 13.3237 83.1576 14.8314 83.1576 16.716Z" fill="#F7F7F7"/>
<path d="M1.5625 89.5929L49.6052 55.883C50.927 54.5556 53.0648 54.5556 54.3866 55.883L102.446 89.5929C101.923 89.937 101.303 90.1337 100.634 90.1337H3.37389C2.70482 90.1337 2.0847 89.937 1.5625 89.5929Z" fill="#00A7CD"/>
</g>
<path d="M57.8481 44.8412C57.2558 45.2997 56.4248 45.6723 55.3549 45.9588C54.3041 46.2454 53.2056 46.3887 52.0592 46.3887C50.4926 46.3887 49.0311 46.1499 47.6746 45.6723C46.3372 45.1946 45.1814 44.4877 44.207 43.5516C43.2517 42.6345 42.4971 41.4882 41.943 40.1127C41.4081 38.718 41.1406 37.1227 41.1406 35.3268C41.1406 33.6456 41.4177 32.1076 41.9717 30.7129C42.5258 29.3182 43.2995 28.1337 44.293 27.1593C45.3056 26.1659 46.5187 25.4017 47.9325 24.8667C49.3463 24.3127 50.9034 24.0356 52.6037 24.0356C54.0557 24.0356 55.4218 24.2745 56.7018 24.7521C58.001 25.2106 59.1186 25.8697 60.0548 26.7295C60.9909 27.5701 61.7265 28.6018 62.2614 29.8245C62.8155 31.0472 63.0925 32.4037 63.0925 33.8939C63.0925 36.1101 62.6244 37.82 61.6883 39.0237C60.7712 40.2273 59.6536 40.8291 58.3353 40.8291C57.5902 40.8291 56.9215 40.6572 56.3293 40.3133C55.7561 39.9694 55.3644 39.4726 55.1543 38.8231C54.8868 39.4344 54.4092 39.9216 53.7214 40.2846C53.0336 40.6476 52.2885 40.8291 51.4861 40.8291C50.0341 40.8291 48.8687 40.3228 47.9898 39.3102C47.111 38.2786 46.6716 36.9316 46.6716 35.2695C46.6716 34.3715 46.8053 33.5691 47.0728 32.8622C47.3403 32.1553 47.6937 31.5726 48.1331 31.1141C48.5916 30.6365 49.1266 30.2735 49.738 30.0251C50.3493 29.7768 50.9893 29.6526 51.658 29.6526C52.3076 29.6526 52.8903 29.7768 53.4062 30.0251C53.922 30.2735 54.3614 30.5792 54.7244 30.9422V29.8532H56.7591V37.1896C56.7591 37.8009 56.9215 38.2595 57.2463 38.5651C57.5711 38.8517 57.9723 38.995 58.4499 38.995C59.2141 38.995 59.8446 38.5365 60.3413 37.6194C60.8381 36.7024 61.0864 35.4701 61.0864 33.9226C61.0864 32.6998 60.8572 31.5917 60.3987 30.5983C59.9592 29.6048 59.3574 28.7642 58.5932 28.0764C57.829 27.3886 56.9215 26.8632 55.8707 26.5002C54.8199 26.1181 53.6927 25.9271 52.4891 25.9271C51.1135 25.9271 49.8526 26.1659 48.7063 26.6435C47.56 27.1211 46.576 27.7803 45.7545 28.6209C44.9521 29.4615 44.3216 30.455 43.8631 31.6013C43.4237 32.7476 43.204 33.9894 43.204 35.3268C43.204 36.7979 43.4237 38.1066 43.8631 39.2529C44.3216 40.3992 44.9521 41.3545 45.7545 42.1187C46.5569 42.8829 47.5026 43.4561 48.5916 43.8382C49.6997 44.2394 50.8938 44.44 52.1739 44.44C53.0909 44.44 53.9889 44.3062 54.8677 44.0388C55.7465 43.7904 56.4534 43.5134 56.9884 43.2077L57.8481 44.8412ZM54.7244 35.3841V34.9543C54.7244 33.7506 54.4378 32.8813 53.8647 32.3464C53.2915 31.8115 52.6133 31.544 51.83 31.544C50.9511 31.544 50.2347 31.8783 49.6806 32.547C49.1266 33.1966 48.8496 34.0945 48.8496 35.2408C48.8496 36.4254 49.117 37.3424 49.652 37.992C50.206 38.6416 50.932 38.9663 51.83 38.9663C52.6515 38.9663 53.3393 38.6702 53.8933 38.078C54.4474 37.4857 54.7244 36.5878 54.7244 35.3841Z" fill="#00A7CD"/>
<defs>
<clipPath id="clip0_126_6982">
<rect width="104" height="90.1333" fill="white"/>
</clipPath>
</defs>
</svg>
